<svg width="726" height="670" version="1.1" xmlns="http://www.w3.org/2000/svg" desc="Created with imagetracer.js version 1.2.6" ><path fill="rgb(255,255,255)" stroke="rgb(255,255,255)" stroke-width="1" opacity="0.7333333333333333" d="M 145.5 1 L 148 1.5 L 145.5 2 L 145.5 1 Z " /><path fill="rgb(255,255,255)" stroke="rgb(255,255,255)" stroke-width="1" opacity="0.7333333333333333" d="M 578.5 1 L 581 1.5 L 578.5 2 L 578.5 1 Z " /><path fill="rgb(255,255,255)" stroke="rgb(255,255,255)" stroke-width="1" opacity="0.7333333333333333" d="M 150.5 2 L 153 2.5 L 150.5 3 L 150.5 2 Z " /><path fill="rgb(255,255,255)" stroke="rgb(255,255,255)" stroke-width="1" opacity="0.7333333333333333" d="M 573.5 2 L 576 2.5 L 573.5 3 L 573.5 2 Z " /><path fill="rgb(255,255,255)" stroke="rgb(255,255,255)" stroke-width="1" opacity="0.7333333333333333" d="M 110.5 16 L 109.5 18 L 110.5 16 Z " /><path fill="rgb(255,255,255)" stroke="rgb(255,255,255)" stroke-width="1" opacity="0.7333333333333333" d="M 615.5 16 L 616.5 18 L 615.5 16 Z " /><path fill="rgb(255,255,255)" stroke="rgb(255,255,255)" stroke-width="1" opacity="0.7333333333333333" d="M 107.5 18 L 106.5 20 L 107.5 18 Z " /><path fill="rgb(255,255,255)" stroke="rgb(255,255,255)" stroke-width="1" opacity="0.7333333333333333" d="M 618.5 18 L 619.5 20 L 618.5 18 Z " /><path fill="rgb(255,255,255)" stroke="rgb(255,255,255)" stroke-width="1" opacity="0.7333333333333333" d="M 104.5 20 L 103.5 22 L 104.5 20 Z " /><path fill="rgb(255,255,255)" stroke="rgb(255,255,255)" stroke-width="1" opacity="0.7333333333333333" d="M 621.5 20 L 622.5 22 L 621.5 20 Z " /><path fill="rgb(255,255,255)" stroke="rgb(255,255,255)" stroke-width="1" opacity="0.7333333333333333" d="M 100.5 23 L 99.5 25 L 100.5 23 Z " /><path fill="rgb(255,255,255)" stroke="rgb(255,255,255)" stroke-width="1" opacity="0.7333333333333333" d="M 625.5 23 L 626.5 25 L 625.5 23 Z " /><path fill="rgb(255,255,255)" stroke="rgb(255,255,255)" stroke-width="1" opacity="0.7333333333333333" d="M 96.5 26 L 95.5 28 L 96.5 26 Z " /><path fill="rgb(255,255,255)" stroke="rgb(255,255,255)" stroke-width="1" opacity="0.7333333333333333" d="M 629.5 26 L 630.5 28 L 629.5 26 Z " /><path fill="rgb(255,255,255)" stroke="rgb(255,255,255)" stroke-width="1" opacity="0.7333333333333333" d="M 92.5 29 L 90.5 32 L 92.5 29 Z " /><path fill="rgb(255,255,255)" stroke="rgb(255,255,255)" stroke-width="1" opacity="0.7333333333333333" d="M 633.5 29 L 635.5 32 L 633.5 29 Z " /><path fill="rgb(255,255,255)" stroke="rgb(255,255,255)" stroke-width="1" opacity="0.7333333333333333" d="M 87.5 33 L 82.5 39 L 87.5 33 Z " /><path fill="rgb(255,255,255)" stroke="rgb(255,255,255)" stroke-width="1" opacity="0.7333333333333333" d="M 638.5 33 L 643.5 39 L 638.5 33 Z " /><path fill="rgb(255,255,255)" stroke="rgb(255,255,255)" stroke-width="1" opacity="0.7333333333333333" d="M 473.5 35 L 476 35.5 L 473.5 36 L 473.5 35 Z " /><path fill="rgb(255,255,255)" stroke="rgb(255,255,255)" stroke-width="1" opacity="0.7333333333333333" d="M 270.5 39 L 273 39.5 L 270.5 40 L 270.5 39 Z " /><path fill="rgb(255,255,255)" stroke="rgb(255,255,255)" stroke-width="1" opacity="0.7333333333333333" d="M 453.5 39 L 456 39.5 L 453.5 40 L 453.5 39 Z " /><path fill="rgb(255,255,255)" stroke="rgb(255,255,255)" stroke-width="1" opacity="0.7333333333333333" d="M 276.5 40 L 279 40.5 L 276.5 41 L 276.5 40 Z " /><path fill="rgb(255,255,255)" stroke="rgb(255,255,255)" stroke-width="1" opacity="0.7333333333333333" d="M 447.5 40 L 450 40.5 L 447.5 41 L 447.5 40 Z " /><path fill="rgb(255,255,255)" stroke="rgb(255,255,255)" stroke-width="1" opacity="0.7333333333333333" d="M 282.5 41 L 285 41.5 L 282.5 42 L 282.5 41 Z " /><path fill="rgb(255,255,255)" stroke="rgb(255,255,255)" stroke-width="1" opacity="0.7333333333333333" d="M 441.5 41 L 444 41.5 L 441.5 42 L 441.5 41 Z " /><path fill="rgb(255,255,255)" stroke="rgb(255,255,255)" stroke-width="1" opacity="0.7333333333333333" d="M 77.5 42 L 69.5 51 L 77.5 42 Z " /><path fill="rgb(255,255,255)" stroke="rgb(255,255,255)" stroke-width="1" opacity="0.7333333333333333" d="M 289.5 42 L 292 42.5 L 289.5 43 L 289.5 42 Z " /><path fill="rgb(255,255,255)" stroke="rgb(255,255,255)" stroke-width="1" opacity="0.7333333333333333" d="M 434.5 42 L 437 42.5 L 434.5 43 L 434.5 42 Z " /><path fill="rgb(255,255,255)" stroke="rgb(255,255,255)" stroke-width="1" opacity="0.7333333333333333" d="M 648.5 42 L 656.5 51 L 648.5 42 Z " /><path fill="rgb(255,255,255)" stroke="rgb(255,255,255)" stroke-width="1" opacity="0.7333333333333333" d="M 296.5 43 L 300 43.5 L 296.5 44 L 296.5 43 Z " /><path fill="rgb(255,255,255)" stroke="rgb(255,255,255)" stroke-width="1" opacity="0.7333333333333333" d="M 426.5 43 L 430 43.5 L 426.5 44 L 426.5 43 Z " /><path fill="rgb(255,255,255)" stroke="rgb(255,255,255)" stroke-width="1" opacity="0.7333333333333333" d="M 304.5 44 L 309 44.5 L 304.5 45 L 304.5 44 Z " /><path fill="rgb(255,255,255)" stroke="rgb(255,255,255)" stroke-width="1" opacity="0.7333333333333333" d="M 417.5 44 L 422 44.5 L 417.5 45 L 417.5 44 Z " /><path fill="rgb(255,255,255)" stroke="rgb(255,255,255)" stroke-width="1" opacity="0.7333333333333333" d="M 315.5 45 L 320 45.5 L 315.5 46 L 315.5 45 Z " /><path fill="rgb(255,255,255)" stroke="rgb(255,255,255)" stroke-width="1" opacity="0.7333333333333333" d="M 406.5 45 L 411 45.5 L 406.5 46 L 406.5 45 Z " /><path fill="rgb(255,255,255)" stroke="rgb(255,255,255)" stroke-width="1" opacity="0.7333333333333333" d="M 327.5 46 L 336 46.5 L 327.5 47 L 327.5 46 Z " /><path fill="rgb(255,255,255)" stroke="rgb(255,255,255)" stroke-width="1" opacity="0.7333333333333333" d="M 390.5 46 L 399 46.5 L 390.5 47 L 390.5 46 Z " /><path fill="rgb(255,255,255)" stroke="rgb(255,255,255)" stroke-width="1" opacity="0.7333333333333333" d="M 349.5 47 L 377 47.5 L 349.5 48 L 349.5 47 Z " /><path fill="rgb(255,255,255)" stroke="rgb(255,255,255)" stroke-width="1" opacity="0.7333333333333333" d="M 65.5 55 L 60.5 61 L 65.5 55 Z " /><path fill="rgb(255,255,255)" stroke="rgb(255,255,255)" stroke-width="1" opacity="0.7333333333333333" d="M 660.5 55 L 665.5 61 L 660.5 55 Z " /><path fill="rgb(255,255,255)" stroke="rgb(255,255,255)" stroke-width="1" opacity="0.7333333333333333" d="M 58.5 63 L 56.5 66 L 58.5 63 Z " /><path fill="rgb(255,255,255)" stroke="rgb(255,255,255)" stroke-width="1" opacity="0.7333333333333333" d="M 667.5 63 L 669.5 66 L 667.5 63 Z " /><path fill="rgb(255,255,255)" stroke="rgb(255,255,255)" stroke-width="1" opacity="0.7333333333333333" d="M 54.5 68 L 52.5 71 L 54.5 68 Z " /><path fill="rgb(255,255,255)" stroke="rgb(255,255,255)" stroke-width="1" opacity="0.7333333333333333" d="M 671.5 68 L 673.5 71 L 671.5 68 Z " /><path fill="rgb(255,255,255)" stroke="rgb(255,255,255)" stroke-width="1" opacity="0.7333333333333333" d="M 50.5 73 L 49.5 75 L 50.5 73 Z " /><path fill="rgb(255,255,255)" stroke="rgb(255,255,255)" stroke-width="1" opacity="0.7333333333333333" d="M 675.5 73 L 676.5 75 L 675.5 73 Z " /><path fill="rgb(255,255,255)" stroke="rgb(255,255,255)" stroke-width="1" opacity="0.7333333333333333" d="M 45.5 80 L 44.5 82 L 45.5 80 Z " /><path fill="rgb(255,255,255)" stroke="rgb(255,255,255)" stroke-width="1" opacity="0.7333333333333333" d="M 680.5 80 L 681.5 82 L 680.5 80 Z " /><path fill="rgb(255,255,255)" stroke="rgb(255,255,255)" stroke-width="1" opacity="0.7333333333333333" d="M 43.5 83 L 42.5 85 L 43.5 83 Z " /><path fill="rgb(255,255,255)" stroke="rgb(255,255,255)" stroke-width="1" opacity="0.7333333333333333" d="M 682.5 83 L 683.5 85 L 682.5 83 Z " /><path fill="rgb(255,255,255)" stroke="rgb(255,255,255)" stroke-width="1" opacity="0.7333333333333333" d="M 41.5 86 L 40.5 88 L 41.5 86 Z " /><path fill="rgb(255,255,255)" stroke="rgb(255,255,255)" stroke-width="1" opacity="0.7333333333333333" d="M 684.5 86 L 685.5 88 L 684.5 86 Z " /><path fill="rgb(255,255,255)" stroke="rgb(255,255,255)" stroke-width="1" opacity="0.7333333333333333" d="M 36.5 94 L 35.5 96 L 36.5 94 Z " /><path fill="rgb(255,255,255)" stroke="rgb(255,255,255)" stroke-width="1" opacity="0.7333333333333333" d="M 689.5 94 L 690.5 96 L 689.5 94 Z " /><path fill="rgb(255,255,255)" stroke="rgb(255,255,255)" stroke-width="1" opacity="0.7333333333333333" d="M 123.5 150 L 126 151.5 L 124.5 152 L 123.5 150 Z " /><path fill="rgb(255,255,255)" stroke="rgb(255,255,255)" stroke-width="1" opacity="0.7333333333333333" d="M 602.5 150 L 601.5 152 L 600 151.5 L 602.5 150 Z " /><path fill="rgb(255,255,255)" stroke="rgb(255,255,255)" stroke-width="1" opacity="0.7333333333333333" d="M 127 152 L 129 152.5 L 128.5 155 L 127 152 Z " /><path fill="rgb(255,255,255)" stroke="rgb(255,255,255)" stroke-width="1" opacity="0.7333333333333333" d="M 598.5 152 L 599 153.5 L 597 154.5 L 598.5 152 Z " /><path fill="rgb(255,255,255)" stroke="rgb(255,255,255)" stroke-width="1" opacity="0.7333333333333333" d="M 131.5 156 L 132.5 158 L 131.5 156 Z " /><path fill="rgb(255,255,255)" stroke="rgb(255,255,255)" stroke-width="1" opacity="0.7333333333333333" d="M 594.5 156 L 593.5 158 L 594.5 156 Z " /><path fill="rgb(255,255,255)" stroke="rgb(255,255,255)" stroke-width="1" opacity="0.7333333333333333" d="M 134.5 158 L 136.5 161 L 134.5 158 Z " /><path fill="rgb(255,255,255)" stroke="rgb(255,255,255)" stroke-width="1" opacity="0.7333333333333333" d="M 591.5 158 L 589.5 161 L 591.5 158 Z " /><path fill="rgb(255,255,255)" stroke="rgb(255,255,255)" stroke-width="1" opacity="0.7333333333333333" d="M 138.5 161 L 140.5 164 L 138.5 161 Z " /><path fill="rgb(255,255,255)" stroke="rgb(255,255,255)" stroke-width="1" opacity="0.7333333333333333" d="M 586.5 162 L 585.5 164 L 586.5 162 Z " /><path fill="rgb(255,255,255)" stroke="rgb(255,255,255)" stroke-width="1" opacity="0.7333333333333333" d="M 143.5 165 L 145.5 168 L 143.5 165 Z " /><path fill="rgb(255,255,255)" stroke="rgb(255,255,255)" stroke-width="1" opacity="0.7333333333333333" d="M 582.5 165 L 580.5 168 L 582.5 165 Z " /><path fill="rgb(255,255,255)" stroke="rgb(255,255,255)" stroke-width="1" opacity="0.7333333333333333" d="M 6.5 166 L 7 168.5 L 6 168.5 L 6.5 166 Z " /><path fill="rgb(255,255,255)" stroke="rgb(255,255,255)" stroke-width="1" opacity="0.7333333333333333" d="M 719.5 166 L 720 168.5 L 719 168.5 L 719.5 166 Z " /><path fill="rgb(255,255,255)" stroke="rgb(255,255,255)" stroke-width="1" opacity="0.7333333333333333" d="M 148.5 169 L 151.5 173 L 148.5 169 Z " /><path fill="rgb(255,255,255)" stroke="rgb(255,255,255)" stroke-width="1" opacity="0.7333333333333333" d="M 577.5 169 L 574.5 173 L 577.5 169 Z " /><path fill="rgb(255,255,255)" stroke="rgb(255,255,255)" stroke-width="1" opacity="0.7333333333333333" d="M 154.5 174 L 158.5 179 L 154.5 174 Z " /><path fill="rgb(255,255,255)" stroke="rgb(255,255,255)" stroke-width="1" opacity="0.7333333333333333" d="M 571.5 174 L 567.5 179 L 571.5 174 Z " /><path fill="rgb(255,255,255)" stroke="rgb(255,255,255)" stroke-width="1" opacity="0.7333333333333333" d="M 4.5 176 L 5 178.5 L 4 178.5 L 4.5 176 Z " /><path fill="rgb(255,255,255)" stroke="rgb(255,255,255)" stroke-width="1" opacity="0.7333333333333333" d="M 3.5 181 L 4 184.5 L 3 184.5 L 3.5 181 Z " /><path fill="rgb(255,255,255)" stroke="rgb(255,255,255)" stroke-width="1" opacity="0.7333333333333333" d="M 162.5 181 L 169.5 189 L 162.5 181 Z " /><path fill="rgb(255,255,255)" stroke="rgb(255,255,255)" stroke-width="1" opacity="0.7333333333333333" d="M 563.5 181 L 556.5 189 L 563.5 181 Z " /><path fill="rgb(255,255,255)" stroke="rgb(255,255,255)" stroke-width="1" opacity="0.7333333333333333" d="M 722.5 181 L 723 184.5 L 722 184.5 L 722.5 181 Z " /><path fill="rgb(255,255,255)" stroke="rgb(255,255,255)" stroke-width="1" opacity="0.7333333333333333" d="M 504.5 182 L 507 182.5 L 504.5 183 L 504.5 182 Z " /><path fill="rgb(255,255,255)" stroke="rgb(255,255,255)" stroke-width="1" opacity="0.7333333333333333" d="M 224.5 183 L 227 183.5 L 224.5 184 L 224.5 183 Z " /><path fill="rgb(255,255,255)" stroke="rgb(255,255,255)" stroke-width="1" opacity="0.7333333333333333" d="M 234.5 185 L 237 185.5 L 234.5 186 L 234.5 185 Z " /><path fill="rgb(255,255,255)" stroke="rgb(255,255,255)" stroke-width="1" opacity="0.7333333333333333" d="M 239.5 186 L 242 186.5 L 239.5 187 L 239.5 186 Z " /><path fill="rgb(255,255,255)" stroke="rgb(255,255,255)" stroke-width="1" opacity="0.7333333333333333" d="M 484.5 186 L 487 186.5 L 484.5 187 L 484.5 186 Z " /><path fill="rgb(255,255,255)" stroke="rgb(255,255,255)" stroke-width="1" opacity="0.7333333333333333" d="M 245.5 187 L 248 187.5 L 245.5 188 L 245.5 187 Z " /><path fill="rgb(255,255,255)" stroke="rgb(255,255,255)" stroke-width="1" opacity="0.7333333333333333" d="M 2.5 188 L 3 191.5 L 2 191.5 L 2.5 188 Z " /><path fill="rgb(255,255,255)" stroke="rgb(255,255,255)" stroke-width="1" opacity="0.7333333333333333" d="M 251.5 188 L 254 188.5 L 251.5 189 L 251.5 188 Z " /><path fill="rgb(255,255,255)" stroke="rgb(255,255,255)" stroke-width="1" opacity="0.7333333333333333" d="M 472.5 188 L 476 188.5 L 472.5 189 L 472.5 188 Z " /><path fill="rgb(255,255,255)" stroke="rgb(255,255,255)" stroke-width="1" opacity="0.7333333333333333" d="M 723.5 188 L 724 191.5 L 723 191.5 L 723.5 188 Z " /><path fill="rgb(255,255,255)" stroke="rgb(255,255,255)" stroke-width="1" opacity="0.7333333333333333" d="M 257.5 189 L 260 189.5 L 257.5 190 L 257.5 189 Z " /><path fill="rgb(255,255,255)" stroke="rgb(255,255,255)" stroke-width="1" opacity="0.7333333333333333" d="M 466.5 189 L 469 189.5 L 466.5 190 L 466.5 189 Z " /><path fill="rgb(255,255,255)" stroke="rgb(255,255,255)" stroke-width="1" opacity="0.7333333333333333" d="M 264.5 190 L 267 190.5 L 264.5 191 L 264.5 190 Z " /><path fill="rgb(255,255,255)" stroke="rgb(255,255,255)" stroke-width="1" opacity="0.7333333333333333" d="M 459.5 190 L 463 190.5 L 459.5 191 L 459.5 190 Z " /><path fill="rgb(255,255,255)" stroke="rgb(255,255,255)" stroke-width="1" opacity="0.7333333333333333" d="M 271.5 191 L 275 191.5 L 271.5 192 L 271.5 191 Z " /><path fill="rgb(255,255,255)" stroke="rgb(255,255,255)" stroke-width="1" opacity="0.7333333333333333" d="M 452.5 191 L 455 191.5 L 452.5 192 L 452.5 191 Z " /><path fill="rgb(255,255,255)" stroke="rgb(255,255,255)" stroke-width="1" opacity="0.7333333333333333" d="M 279.5 192 L 283 192.5 L 279.5 193 L 279.5 192 Z " /><path fill="rgb(255,255,255)" stroke="rgb(255,255,255)" stroke-width="1" opacity="0.7333333333333333" d="M 443.5 192 L 448 192.5 L 443.5 193 L 443.5 192 Z " /><path fill="rgb(255,255,255)" stroke="rgb(255,255,255)" stroke-width="1" opacity="0.7333333333333333" d="M 288.5 193 L 292 193.5 L 288.5 194 L 288.5 193 Z " /><path fill="rgb(255,255,255)" stroke="rgb(255,255,255)" stroke-width="1" opacity="0.7333333333333333" d="M 434.5 193 L 439 193.5 L 434.5 194 L 434.5 193 Z " /><path fill="rgb(255,255,255)" stroke="rgb(255,255,255)" stroke-width="1" opacity="0.7333333333333333" d="M 176.5 194 L 187.5 206 L 176.5 194 Z " /><path fill="rgb(255,255,255)" stroke="rgb(255,255,255)" stroke-width="1" opacity="0.7333333333333333" d="M 298.5 194 L 303 194.5 L 298.5 195 L 298.5 194 Z " /><path fill="rgb(255,255,255)" stroke="rgb(255,255,255)" stroke-width="1" opacity="0.7333333333333333" d="M 423.5 194 L 429 194.5 L 423.5 195 L 423.5 194 Z " /><path fill="rgb(255,255,255)" stroke="rgb(255,255,255)" stroke-width="1" opacity="0.7333333333333333" d="M 310.5 195 L 317 195.5 L 310.5 196 L 310.5 195 Z " /><path fill="rgb(255,255,255)" stroke="rgb(255,255,255)" stroke-width="1" opacity="0.7333333333333333" d="M 409.5 195 L 417 195.5 L 409.5 196 L 409.5 195 Z " /><path fill="rgb(255,255,255)" stroke="rgb(255,255,255)" stroke-width="1" opacity="0.7333333333333333" d="M 548.5 195 L 539.5 205 L 548.5 195 Z " /><path fill="rgb(255,255,255)" stroke="rgb(255,255,255)" stroke-width="1" opacity="0.7333333333333333" d="M 325.5 196 L 337 196.5 L 325.5 197 L 325.5 196 Z " /><path fill="rgb(255,255,255)" stroke="rgb(255,255,255)" stroke-width="1" opacity="0.7333333333333333" d="M 390.5 196 L 401 196.5 L 390.5 197 L 390.5 196 Z " /><path fill="rgb(255,255,255)" stroke="rgb(255,255,255)" stroke-width="1" opacity="0.7333333333333333" d="M 1.5 197 L 2 202.5 L 1 202.5 L 1.5 197 Z " /><path fill="rgb(255,255,255)" stroke="rgb(255,255,255)" stroke-width="1" opacity="0.7333333333333333" d="M 724.5 197 L 725 202.5 L 724 202.5 L 724.5 197 Z " /><path fill="rgb(255,255,255)" stroke="rgb(255,255,255)" stroke-width="1" opacity="0.7333333333333333" d="M 193.5 212 L 201.5 221 L 193.5 212 Z " /><path fill="rgb(255,255,255)" stroke="rgb(255,255,255)" stroke-width="1" opacity="0.7333333333333333" d="M 532.5 212 L 525.5 220 L 532.5 212 Z " /><path fill="rgb(255,255,255)" stroke="rgb(255,255,255)" stroke-width="1" opacity="0.7333333333333333" d="M 204.5 224 L 208.5 229 L 204.5 224 Z " /><path fill="rgb(255,255,255)" stroke="rgb(255,255,255)" stroke-width="1" opacity="0.7333333333333333" d="M 521.5 224 L 517.5 229 L 521.5 224 Z " /><path fill="rgb(255,255,255)" stroke="rgb(255,255,255)" stroke-width="1" opacity="0.7333333333333333" d="M 1.5 231 L 2 236.5 L 1 236.5 L 1.5 231 Z " /><path fill="rgb(255,255,255)" stroke="rgb(255,255,255)" stroke-width="1" opacity="0.7333333333333333" d="M 724.5 231 L 725 236.5 L 724 236.5 L 724.5 231 Z " /><path fill="rgb(255,255,255)" stroke="rgb(255,255,255)" stroke-width="1" opacity="0.7333333333333333" d="M 211.5 232 L 214.5 236 L 211.5 232 Z " /><path fill="rgb(255,255,255)" stroke="rgb(255,255,255)" stroke-width="1" opacity="0.7333333333333333" d="M 514.5 232 L 511.5 236 L 514.5 232 Z " /><path fill="rgb(255,255,255)" stroke="rgb(255,255,255)" stroke-width="1" opacity="0.7333333333333333" d="M 216.5 238 L 219.5 242 L 216.5 238 Z " /><path fill="rgb(255,255,255)" stroke="rgb(255,255,255)" stroke-width="1" opacity="0.7333333333333333" d="M 509.5 238 L 506.5 242 L 509.5 238 Z " /><path fill="rgb(255,255,255)" stroke="rgb(255,255,255)" stroke-width="1" opacity="0.7333333333333333" d="M 2.5 241 L 4.5 244 L 2.5 241 Z " /><path fill="rgb(255,255,255)" stroke="rgb(255,255,255)" stroke-width="1" opacity="0.7333333333333333" d="M 723.5 241 L 721.5 244 L 723.5 241 Z " /><path fill="rgb(255,255,255)" stroke="rgb(255,255,255)" stroke-width="1" opacity="0.7333333333333333" d="M 221.5 244 L 223.5 247 L 221.5 244 Z " /><path fill="rgb(255,255,255)" stroke="rgb(255,255,255)" stroke-width="1" opacity="0.7333333333333333" d="M 504.5 244 L 502.5 247 L 504.5 244 Z " /><path fill="rgb(255,255,255)" stroke="rgb(255,255,255)" stroke-width="1" opacity="0.7333333333333333" d="M 6.5 246 L 23.5 264 L 6.5 246 Z " /><path fill="rgb(255,255,255)" stroke="rgb(255,255,255)" stroke-width="1" opacity="0.7333333333333333" d="M 719.5 246 L 702.5 264 L 719.5 246 Z " /><path fill="rgb(255,255,255)" stroke="rgb(255,255,255)" stroke-width="1" opacity="0.7333333333333333" d="M 225.5 249 L 227.5 252 L 225.5 249 Z " /><path fill="rgb(255,255,255)" stroke="rgb(255,255,255)" stroke-width="1" opacity="0.7333333333333333" d="M 500.5 249 L 498.5 252 L 500.5 249 Z " /><path fill="rgb(255,255,255)" stroke="rgb(255,255,255)" stroke-width="1" opacity="0.7333333333333333" d="M 229.5 254 L 230.5 256 L 229.5 254 Z " /><path fill="rgb(255,255,255)" stroke="rgb(255,255,255)" stroke-width="1" opacity="0.7333333333333333" d="M 496.5 254 L 495.5 256 L 496.5 254 Z " /><path fill="rgb(255,255,255)" stroke="rgb(255,255,255)" stroke-width="1" opacity="0.7333333333333333" d="M 232.5 258 L 234.5 261 L 232.5 258 Z " /><path fill="rgb(255,255,255)" stroke="rgb(255,255,255)" stroke-width="1" opacity="0.7333333333333333" d="M 493.5 258 L 491.5 261 L 493.5 258 Z " /><path fill="rgb(255,255,255)" stroke="rgb(255,255,255)" stroke-width="1" opacity="0.7333333333333333" d="M 235.5 262 L 237.5 265 L 235.5 262 Z " /><path fill="rgb(255,255,255)" stroke="rgb(255,255,255)" stroke-width="1" opacity="0.7333333333333333" d="M 490.5 262 L 488.5 265 L 490.5 262 Z " /><path fill="rgb(255,255,255)" stroke="rgb(255,255,255)" stroke-width="1" opacity="0.7333333333333333" d="M 26.5 265 L 28.5 268 L 26.5 265 Z " /><path fill="rgb(255,255,255)" stroke="rgb(255,255,255)" stroke-width="1" opacity="0.7333333333333333" d="M 699.5 265 L 697.5 268 L 699.5 265 Z " /><path fill="rgb(255,255,255)" stroke="rgb(255,255,255)" stroke-width="1" opacity="0.7333333333333333" d="M 238.5 266 L 240.5 269 L 238.5 266 Z " /><path fill="rgb(255,255,255)" stroke="rgb(255,255,255)" stroke-width="1" opacity="0.7333333333333333" d="M 487.5 266 L 485.5 269 L 487.5 266 Z " /><path fill="rgb(255,255,255)" stroke="rgb(255,255,255)" stroke-width="1" opacity="0.7333333333333333" d="M 30.5 268 L 31.5 270 L 30.5 268 Z " /><path fill="rgb(255,255,255)" stroke="rgb(255,255,255)" stroke-width="1" opacity="0.7333333333333333" d="M 695.5 268 L 694.5 270 L 695.5 268 Z " /><path fill="rgb(255,255,255)" stroke="rgb(255,255,255)" stroke-width="1" opacity="0.7333333333333333" d="M 33.5 270 L 34.5 272 L 33.5 270 Z " /><path fill="rgb(255,255,255)" stroke="rgb(255,255,255)" stroke-width="1" opacity="0.7333333333333333" d="M 241.5 270 L 242.5 272 L 241.5 270 Z " /><path fill="rgb(255,255,255)" stroke="rgb(255,255,255)" stroke-width="1" opacity="0.7333333333333333" d="M 484.5 270 L 483.5 272 L 484.5 270 Z " /><path fill="rgb(255,255,255)" stroke="rgb(255,255,255)" stroke-width="1" opacity="0.7333333333333333" d="M 692.5 270 L 691.5 272 L 692.5 270 Z " /><path fill="rgb(255,255,255)" stroke="rgb(255,255,255)" stroke-width="1" opacity="0.7333333333333333" d="M 37.5 273 L 38.5 275 L 37.5 273 Z " /><path fill="rgb(255,255,255)" stroke="rgb(255,255,255)" stroke-width="1" opacity="0.7333333333333333" d="M 688.5 273 L 687.5 275 L 688.5 273 Z " /><path fill="rgb(255,255,255)" stroke="rgb(255,255,255)" stroke-width="1" opacity="0.7333333333333333" d="M 244.5 274 L 245.5 276 L 244.5 274 Z " /><path fill="rgb(255,255,255)" stroke="rgb(255,255,255)" stroke-width="1" opacity="0.7333333333333333" d="M 481.5 274 L 480.5 276 L 481.5 274 Z " /><path fill="rgb(255,255,255)" stroke="rgb(255,255,255)" stroke-width="1" opacity="0.7333333333333333" d="M 41.5 276 L 42.5 278 L 41.5 276 Z " /><path fill="rgb(255,255,255)" stroke="rgb(255,255,255)" stroke-width="1" opacity="0.7333333333333333" d="M 684.5 276 L 683.5 278 L 684.5 276 Z " /><path fill="rgb(255,255,255)" stroke="rgb(255,255,255)" stroke-width="1" opacity="0.7333333333333333" d="M 479.5 277 L 478.5 279 L 479.5 277 Z " /><path fill="rgb(255,255,255)" stroke="rgb(255,255,255)" stroke-width="1" opacity="0.7333333333333333" d="M 45.5 279 L 47.5 282 L 45.5 279 Z " /><path fill="rgb(255,255,255)" stroke="rgb(255,255,255)" stroke-width="1" opacity="0.7333333333333333" d="M 680.5 279 L 678.5 282 L 680.5 279 Z " /><path fill="rgb(255,255,255)" stroke="rgb(255,255,255)" stroke-width="1" opacity="0.7333333333333333" d="M 249.5 281 L 250.5 283 L 249.5 281 Z " /><path fill="rgb(255,255,255)" stroke="rgb(255,255,255)" stroke-width="1" opacity="0.7333333333333333" d="M 476.5 281 L 475.5 283 L 476.5 281 Z " /><path fill="rgb(255,255,255)" stroke="rgb(255,255,255)" stroke-width="1" opacity="0.7333333333333333" d="M 50.5 283 L 52.5 286 L 50.5 283 Z " /><path fill="rgb(255,255,255)" stroke="rgb(255,255,255)" stroke-width="1" opacity="0.7333333333333333" d="M 675.5 283 L 672.5 287 L 675.5 283 Z " /><path fill="rgb(255,255,255)" stroke="rgb(255,255,255)" stroke-width="1" opacity="0.7333333333333333" d="M 251.5 284 L 252.5 286 L 251.5 284 Z " /><path fill="rgb(255,255,255)" stroke="rgb(255,255,255)" stroke-width="1" opacity="0.7333333333333333" d="M 474.5 284 L 473.5 286 L 474.5 284 Z " /><path fill="rgb(255,255,255)" stroke="rgb(255,255,255)" stroke-width="1" opacity="0.7333333333333333" d="M 472.5 287 L 471.5 289 L 472.5 287 Z " /><path fill="rgb(255,255,255)" stroke="rgb(255,255,255)" stroke-width="1" opacity="0.7333333333333333" d="M 56.5 288 L 60.5 293 L 56.5 288 Z " /><path fill="rgb(255,255,255)" stroke="rgb(255,255,255)" stroke-width="1" opacity="0.7333333333333333" d="M 668.5 289 L 664.5 294 L 668.5 289 Z " /><path fill="rgb(255,255,255)" stroke="rgb(255,255,255)" stroke-width="1" opacity="0.7333333333333333" d="M 64.5 295 L 88.5 320 L 64.5 295 Z " /><path fill="rgb(255,255,255)" stroke="rgb(255,255,255)" stroke-width="1" opacity="0.7333333333333333" d="M 659.5 297 L 640.5 317 L 659.5 297 Z " /><path fill="rgb(255,255,255)" stroke="rgb(255,255,255)" stroke-width="1" opacity="0.7333333333333333" d="M 265.5 305 L 266.5 307 L 265.5 305 Z " /><path fill="rgb(255,255,255)" stroke="rgb(255,255,255)" stroke-width="1" opacity="0.7333333333333333" d="M 460.5 305 L 459.5 307 L 460.5 305 Z " /><path fill="rgb(255,255,255)" stroke="rgb(255,255,255)" stroke-width="1" opacity="0.7333333333333333" d="M 267.5 308 L 268.5 310 L 267.5 308 Z " /><path fill="rgb(255,255,255)" stroke="rgb(255,255,255)" stroke-width="1" opacity="0.7333333333333333" d="M 458.5 308 L 457.5 310 L 458.5 308 Z " /><path fill="rgb(255,255,255)" stroke="rgb(255,255,255)" stroke-width="1" opacity="0.7333333333333333" d="M 272.5 316 L 273.5 318 L 272.5 316 Z " /><path fill="rgb(255,255,255)" stroke="rgb(255,255,255)" stroke-width="1" opacity="0.7333333333333333" d="M 453.5 316 L 452.5 318 L 453.5 316 Z " /><path fill="rgb(255,255,255)" stroke="rgb(255,255,255)" stroke-width="1" opacity="0.7333333333333333" d="M 275.5 321 L 276.5 323 L 275.5 321 Z " /><path fill="rgb(255,255,255)" stroke="rgb(255,255,255)" stroke-width="1" opacity="0.7333333333333333" d="M 450.5 321 L 449.5 323 L 450.5 321 Z " /><path fill="rgb(255,255,255)" stroke="rgb(255,255,255)" stroke-width="1" opacity="0.7333333333333333" d="M 636.5 321 L 631.5 327 L 636.5 321 Z " /><path fill="rgb(255,255,255)" stroke="rgb(255,255,255)" stroke-width="1" opacity="0.7333333333333333" d="M 91.5 323 L 96.5 329 L 91.5 323 Z " /><path fill="rgb(255,255,255)" stroke="rgb(255,255,255)" stroke-width="1" opacity="0.7333333333333333" d="M 278.5 326 L 279.5 328 L 278.5 326 Z " /><path fill="rgb(255,255,255)" stroke="rgb(255,255,255)" stroke-width="1" opacity="0.7333333333333333" d="M 447.5 326 L 446.5 328 L 447.5 326 Z " /><path fill="rgb(255,255,255)" stroke="rgb(255,255,255)" stroke-width="1" opacity="0.7333333333333333" d="M 628.5 330 L 625.5 334 L 628.5 330 Z " /><path fill="rgb(255,255,255)" stroke="rgb(255,255,255)" stroke-width="1" opacity="0.7333333333333333" d="M 98.5 331 L 102.5 336 L 98.5 331 Z " /><path fill="rgb(255,255,255)" stroke="rgb(255,255,255)" stroke-width="1" opacity="0.7333333333333333" d="M 281.5 331 L 282.5 333 L 281.5 331 Z " /><path fill="rgb(255,255,255)" stroke="rgb(255,255,255)" stroke-width="1" opacity="0.7333333333333333" d="M 623.5 336 L 620.5 340 L 623.5 336 Z " /><path fill="rgb(255,255,255)" stroke="rgb(255,255,255)" stroke-width="1" opacity="0.7333333333333333" d="M 104.5 338 L 106.5 341 L 104.5 338 Z " /><path fill="rgb(255,255,255)" stroke="rgb(255,255,255)" stroke-width="1" opacity="0.7333333333333333" d="M 285.5 338 L 286.5 340 L 285.5 338 Z " /><path fill="rgb(255,255,255)" stroke="rgb(255,255,255)" stroke-width="1" opacity="0.7333333333333333" d="M 440.5 338 L 439.5 340 L 440.5 338 Z " /><path fill="rgb(255,255,255)" stroke="rgb(255,255,255)" stroke-width="1" opacity="0.7333333333333333" d="M 618.5 342 L 616.5 345 L 618.5 342 Z " /><path fill="rgb(255,255,255)" stroke="rgb(255,255,255)" stroke-width="1" opacity="0.7333333333333333" d="M 108.5 343 L 110.5 346 L 108.5 343 Z " /><path fill="rgb(255,255,255)" stroke="rgb(255,255,255)" stroke-width="1" opacity="0.7333333333333333" d="M 614.5 347 L 612.5 350 L 614.5 347 Z " /><path fill="rgb(255,255,255)" stroke="rgb(255,255,255)" stroke-width="1" opacity="0.7333333333333333" d="M 112.5 348 L 114.5 351 L 112.5 348 Z " /><path fill="rgb(255,255,255)" stroke="rgb(255,255,255)" stroke-width="1" opacity="0.7333333333333333" d="M 611.5 351 L 609.5 354 L 611.5 351 Z " /><path fill="rgb(255,255,255)" stroke="rgb(255,255,255)" stroke-width="1" opacity="0.7333333333333333" d="M 115.5 352 L 117.5 355 L 115.5 352 Z " /><path fill="rgb(255,255,255)" stroke="rgb(255,255,255)" stroke-width="1" opacity="0.7333333333333333" d="M 607.5 356 L 606.5 358 L 607.5 356 Z " /><path fill="rgb(255,255,255)" stroke="rgb(255,255,255)" stroke-width="1" opacity="0.7333333333333333" d="M 119.5 357 L 120.5 359 L 119.5 357 Z " /><path fill="rgb(255,255,255)" stroke="rgb(255,255,255)" stroke-width="1" opacity="0.7333333333333333" d="M 121.5 360 L 122.5 362 L 121.5 360 Z " /><path fill="rgb(255,255,255)" stroke="rgb(255,255,255)" stroke-width="1" opacity="0.7333333333333333" d="M 428.5 360 L 427.5 362 L 428.5 360 Z " /><path fill="rgb(255,255,255)" stroke="rgb(255,255,255)" stroke-width="1" opacity="0.7333333333333333" d="M 604.5 360 L 603.5 362 L 604.5 360 Z " /><path fill="rgb(255,255,255)" stroke="rgb(255,255,255)" stroke-width="1" opacity="0.7333333333333333" d="M 602.5 363 L 601.5 365 L 602.5 363 Z " /><path fill="rgb(255,255,255)" stroke="rgb(255,255,255)" stroke-width="1" opacity="0.7333333333333333" d="M 124.5 364 L 125.5 366 L 124.5 364 Z " /><path fill="rgb(255,255,255)" stroke="rgb(255,255,255)" stroke-width="1" opacity="0.7333333333333333" d="M 599.5 367 L 598.5 369 L 599.5 367 Z " /><path fill="rgb(255,255,255)" stroke="rgb(255,255,255)" stroke-width="1" opacity="0.7333333333333333" d="M 597.5 370 L 596.5 372 L 597.5 370 Z " /><path fill="rgb(255,255,255)" stroke="rgb(255,255,255)" stroke-width="1" opacity="0.7333333333333333" d="M 129.5 371 L 130.5 373 L 129.5 371 Z " /><path fill="rgb(255,255,255)" stroke="rgb(255,255,255)" stroke-width="1" opacity="0.7333333333333333" d="M 595.5 373 L 594.5 375 L 595.5 373 Z " /><path fill="rgb(255,255,255)" stroke="rgb(255,255,255)" stroke-width="1" opacity="0.7333333333333333" d="M 131.5 374 L 132.5 376 L 131.5 374 Z " /><path fill="rgb(255,255,255)" stroke="rgb(255,255,255)" stroke-width="1" opacity="0.7333333333333333" d="M 133.5 377 L 134.5 379 L 133.5 377 Z " /><path fill="rgb(255,255,255)" stroke="rgb(255,255,255)" stroke-width="1" opacity="0.7333333333333333" d="M 135.5 380 L 136.5 382 L 135.5 380 Z " /><path fill="rgb(255,255,255)" stroke="rgb(255,255,255)" stroke-width="1" opacity="0.7333333333333333" d="M 137.5 383 L 138.5 385 L 137.5 383 Z " /><path fill="rgb(255,255,255)" stroke="rgb(255,255,255)" stroke-width="1" opacity="0.7333333333333333" d="M 587.5 385 L 586.5 387 L 587.5 385 Z " /><path fill="rgb(255,255,255)" stroke="rgb(255,255,255)" stroke-width="1" opacity="0.7333333333333333" d="M 585.5 388 L 584.5 390 L 585.5 388 Z " /><path fill="rgb(255,255,255)" stroke="rgb(255,255,255)" stroke-width="1" opacity="0.7333333333333333" d="M 144.5 394 L 145.5 396 L 144.5 394 Z " /><path fill="rgb(255,255,255)" stroke="rgb(255,255,255)" stroke-width="1" opacity="0.7333333333333333" d="M 580.5 396 L 579.5 398 L 580.5 396 Z " /><path fill="rgb(255,255,255)" stroke="rgb(255,255,255)" stroke-width="1" opacity="0.7333333333333333" d="M 147.5 399 L 148.5 401 L 147.5 399 Z " /><path fill="rgb(255,255,255)" stroke="rgb(255,255,255)" stroke-width="1" opacity="0.7333333333333333" d="M 577.5 401 L 576.5 403 L 577.5 401 Z " /><path fill="rgb(255,255,255)" stroke="rgb(255,255,255)" stroke-width="1" opacity="0.7333333333333333" d="M 150.5 404 L 151.5 406 L 150.5 404 Z " /><path fill="rgb(255,255,255)" stroke="rgb(255,255,255)" stroke-width="1" opacity="0.7333333333333333" d="M 574.5 406 L 573.5 408 L 574.5 406 Z " /><path fill="rgb(255,255,255)" stroke="rgb(255,255,255)" stroke-width="1" opacity="0.7333333333333333" d="M 570.5 413 L 569.5 415 L 570.5 413 Z " /><path fill="rgb(255,255,255)" stroke="rgb(255,255,255)" stroke-width="1" opacity="0.7333333333333333" d="M 355.5 515 L 356 517.5 L 355 517.5 L 355.5 515 Z " /><path fill="rgb(255,255,255)" stroke="rgb(255,255,255)" stroke-width="1" opacity="0.7333333333333333" d="M 370.5 515 L 371 517.5 L 370 517.5 L 370.5 515 Z " /><path fill="rgb(255,255,255)" stroke="rgb(255,255,255)" stroke-width="1" opacity="0.7333333333333333" d="M 356.5 520 L 357 522.5 L 356 522.5 L 356.5 520 Z " /><path fill="rgb(255,255,255)" stroke="rgb(255,255,255)" stroke-width="1" opacity="0.7333333333333333" d="M 369.5 520 L 370 522.5 L 369 522.5 L 369.5 520 Z " /><path fill="rgb(255,255,255)" stroke="rgb(255,255,255)" stroke-width="1" opacity="0.7333333333333333" d="M 357.5 525 L 358 527.5 L 357 527.5 L 357.5 525 Z " /><path fill="rgb(255,255,255)" stroke="rgb(255,255,255)" stroke-width="1" opacity="0.7333333333333333" d="M 368.5 525 L 369 527.5 L 368 527.5 L 368.5 525 Z " /><path fill="rgb(255,255,255)" stroke="rgb(255,255,255)" stroke-width="1" opacity="0.7333333333333333" d="M 358.5 531 L 359 533.5 L 358 533.5 L 358.5 531 Z " /><path fill="rgb(255,255,255)" stroke="rgb(255,255,255)" stroke-width="1" opacity="0.7333333333333333" d="M 367.5 531 L 368 533.5 L 367 533.5 L 367.5 531 Z " /><path fill="rgb(255,255,255)" stroke="rgb(255,255,255)" stroke-width="1" opacity="0.7333333333333333" d="M 359.5 537 L 360 539.5 L 359 539.5 L 359.5 537 Z " /><path fill="rgb(255,255,255)" stroke="rgb(255,255,255)" stroke-width="1" opacity="0.7333333333333333" d="M 366.5 537 L 367 539.5 L 366 539.5 L 366.5 537 Z " /><path fill="rgb(255,255,255)" stroke="rgb(255,255,255)" stroke-width="1" opacity="0.7333333333333333" d="M 207.5 542 L 208 544.5 L 207 544.5 L 207.5 542 Z " /><path fill="rgb(255,255,255)" stroke="rgb(255,255,255)" stroke-width="1" opacity="0.7333333333333333" d="M 360.5 543 L 361 546.5 L 360 546.5 L 360.5 543 Z " /><path fill="rgb(255,255,255)" stroke="rgb(255,255,255)" stroke-width="1" opacity="0.7333333333333333" d="M 365.5 543 L 366 546.5 L 365 546.5 L 365.5 543 Z " /><path fill="rgb(255,255,255)" stroke="rgb(255,255,255)" stroke-width="1" opacity="0.7333333333333333" d="M 361.5 551 L 362 554.5 L 361 554.5 L 361.5 551 Z " /><path fill="rgb(255,255,255)" stroke="rgb(255,255,255)" stroke-width="1" opacity="0.7333333333333333" d="M 364.5 551 L 365 554.5 L 364 554.5 L 364.5 551 Z " /><path fill="rgb(255,255,255)" stroke="rgb(255,255,255)" stroke-width="1" opacity="0.7333333333333333" d="M 516.5 552 L 517 554.5 L 516 554.5 L 516.5 552 Z " /><path fill="rgb(255,255,255)" stroke="rgb(255,255,255)" stroke-width="1" opacity="0.7333333333333333" d="M 210.5 557 L 211 559.5 L 210 559.5 L 210.5 557 Z " /><path fill="rgb(255,255,255)" stroke="rgb(255,255,255)" stroke-width="1" opacity="0.7333333333333333" d="M 515.5 557 L 516 559.5 L 515 559.5 L 515.5 557 Z " /><path fill="rgb(255,255,255)" stroke="rgb(255,255,255)" stroke-width="1" opacity="0.7333333333333333" d="M 362 560 L 364 560 L 364 565 L 362 565 L 362 560 Z " /><path fill="rgb(255,255,255)" stroke="rgb(255,255,255)" stroke-width="1" opacity="0.7333333333333333" d="M 211.5 563 L 212 565.5 L 211 565.5 L 211.5 563 Z " /><path fill="rgb(255,255,255)" stroke="rgb(255,255,255)" stroke-width="1" opacity="0.7333333333333333" d="M 514.5 563 L 515 565.5 L 514 565.5 L 514.5 563 Z " /><path fill="rgb(255,255,255)" stroke="rgb(255,255,255)" stroke-width="1" opacity="0.7333333333333333" d="M 212.5 570 L 213 572.5 L 212 572.5 L 212.5 570 Z " /><path fill="rgb(255,255,255)" stroke="rgb(255,255,255)" stroke-width="1" opacity="0.7333333333333333" d="M 513.5 570 L 514 572.5 L 513 572.5 L 513.5 570 Z " /><path fill="rgb(255,255,255)" stroke="rgb(255,255,255)" stroke-width="1" opacity="0.7333333333333333" d="M 213.5 577 L 214 581.5 L 213 581.5 L 213.5 577 Z " /><path fill="rgb(255,255,255)" stroke="rgb(255,255,255)" stroke-width="1" opacity="0.7333333333333333" d="M 512.5 577 L 513 581.5 L 512 581.5 L 512.5 577 Z " /><path fill="rgb(255,255,255)" stroke="rgb(255,255,255)" stroke-width="1" opacity="0.7333333333333333" d="M 214.5 588 L 215 591.5 L 214 591.5 L 214.5 588 Z " /><path fill="rgb(255,255,255)" stroke="rgb(255,255,255)" stroke-width="1" opacity="0.7333333333333333" d="M 511.5 588 L 512 591.5 L 511 591.5 L 511.5 588 Z " /><path fill="rgb(255,255,255)" stroke="rgb(255,255,255)" stroke-width="1" opacity="0.7333333333333333" d="M 215.5 595 L 216 597.5 L 215 597.5 L 215.5 595 Z " /><path fill="rgb(255,255,255)" stroke="rgb(255,255,255)" stroke-width="1" opacity="0.7333333333333333" d="M 510.5 595 L 511 597.5 L 510 597.5 L 510.5 595 Z " /><path fill="rgb(255,255,255)" stroke="rgb(255,255,255)" stroke-width="1" opacity="0.7333333333333333" d="M 224.5 625 L 226.5 628 L 224.5 625 Z " /><path fill="rgb(255,255,255)" stroke="rgb(255,255,255)" stroke-width="1" opacity="0.7333333333333333" d="M 501.5 625 L 499.5 628 L 501.5 625 Z " /><path fill="rgb(255,255,255)" stroke="rgb(255,255,255)" stroke-width="1" opacity="0.7333333333333333" d="M 228.5 628 L 229.5 630 L 228.5 628 Z " /><path fill="rgb(255,255,255)" stroke="rgb(255,255,255)" stroke-width="1" opacity="0.7333333333333333" d="M 497.5 628 L 496.5 630 L 497.5 628 Z " /><path fill="rgb(255,255,255)" stroke="rgb(255,255,255)" stroke-width="1" opacity="0.7333333333333333" d="M 240.5 636 L 241.5 638 L 240.5 636 Z " /><path fill="rgb(255,255,255)" stroke="rgb(255,255,255)" stroke-width="1" opacity="0.7333333333333333" d="M 485.5 636 L 484.5 638 L 485.5 636 Z " /><path fill="rgb(255,255,255)" stroke="rgb(255,255,255)" stroke-width="1" opacity="0.7333333333333333" d="M 247.5 640 L 248.5 642 L 247.5 640 Z " /><path fill="rgb(255,255,255)" stroke="rgb(255,255,255)" stroke-width="1" opacity="0.7333333333333333" d="M 416.5 663 L 419 663.5 L 416.5 664 L 416.5 663 Z " /><path fill="rgb(255,255,255)" stroke="rgb(255,255,255)" stroke-width="1" opacity="0.7333333333333333" d="M 312.5 664 L 315 664.5 L 312.5 665 L 312.5 664 Z " /><path fill="rgb(255,255,255)" stroke="rgb(255,255,255)" stroke-width="1" opacity="0.7333333333333333" d="M 411.5 664 L 414 664.5 L 411.5 665 L 411.5 664 Z " /><path fill="rgb(255,255,255)" stroke="rgb(255,255,255)" stroke-width="1" opacity="0.7333333333333333" d="M 406.5 665 L 409 665.5 L 406.5 666 L 406.5 665 Z " /><path fill="rgb(255,255,255)" stroke="rgb(255,255,255)" stroke-width="1" opacity="0.7333333333333333" d="M 324.5 666 L 327 666.5 L 324.5 667 L 324.5 666 Z " /><path fill="rgb(255,255,255)" stroke="rgb(255,255,255)" stroke-width="1" opacity="0.7333333333333333" d="M 399.5 666 L 403 666.5 L 399.5 667 L 399.5 666 Z " /><path fill="rgb(255,255,255)" stroke="rgb(255,255,255)" stroke-width="1" opacity="0.7333333333333333" d="M 331.5 667 L 335 667.5 L 331.5 668 L 331.5 667 Z " /><path fill="rgb(255,255,255)" stroke="rgb(255,255,255)" stroke-width="1" opacity="0.7333333333333333" d="M 391.5 667 L 396 667.5 L 391.5 668 L 391.5 667 Z " /><path fill="rgb(255,255,255)" stroke="rgb(255,255,255)" stroke-width="1" opacity="0.7333333333333333" d="M 340.5 668 L 347 668.5 L 340.5 669 L 340.5 668 Z " /><path fill="rgb(255,255,255)" stroke="rgb(255,255,255)" stroke-width="1" opacity="0.7333333333333333" d="M 380.5 668 L 386 668.5 L 380.5 669 L 380.5 668 Z " /><path fill="rgb(255,255,255)" stroke="rgb(255,255,255)" stroke-width="1" opacity="0.7333333333333333" d="M 360.5 669 L 367 669.5 L 360.5 670 L 360.5 669 Z " /><path fill="rgb(255,255,255)" stroke="rgb(255,255,255)" stroke-width="1" opacity="1" d="M 139.5 1 L 144.5 1 L 165.5 6 Q 182 11 195.5 19 L 227.5 30 L 270.5 40 L 295.5 43 L 296.5 44 L 303.5 44 L 304.5 45 L 326.5 46 L 327.5 47 L 376.5 48 L 377.5 47 L 398.5 47 L 399.5 46 L 421.5 45 L 422.5 44 L 443.5 42 L 475.5 36 L 522.5 22 L 560.5 6 L 581.5 1 L 586.5 1 Q 630.2 20.8 660 54.5 Q 692.4 89.6 711 138.5 L 718 160.5 L 722 178.5 L 722 184.5 L 724 192.5 L 724 202.5 L 725 203.5 L 725 230.5 L 724 231.5 L 724 240.5 L 700.5 265 Q 666.5 287 640 316.5 Q 582.1 379.1 545 462.5 Q 533 489.5 524 519.5 L 515 557.5 L 510 599.5 L 504 620.5 L 498.5 628 Q 469 650 428.5 661 L 390.5 668 L 380.5 668 L 379.5 669 L 347.5 669 L 346.5 668 L 335.5 668 L 334.5 667 L 327.5 667 L 305.5 663 L 278.5 655 Q 247.1 643.9 224 624.5 L 216 599.5 L 212 563.5 L 204 526.5 Q 193.3 488.7 178 455.5 Q 135 361.5 64.5 295 Q 46.6 278.4 25.5 265 L 5 244.5 L 2 240.5 L 2 231.5 L 1 230.5 L 1 203.5 L 2 202.5 L 2 192.5 L 7 164.5 L 21 123.5 Q 43.5 73.5 81.5 39 Q 106.2 15.7 139.5 1 Z M 127 152 L 129 155 Q 151 170 171 189 Q 247 262 298 361 Q 326 413 345 475 L 354 509 L 360 541 L 361 555 L 362 556 L 362 565 L 364 565 L 364 556 L 365 555 L 365 548 L 366 547 L 368 529 L 381 475 Q 396 427 416 385 Q 463 287 533 212 Q 562 180 598 155 L 600 152 Q 573 164 544 173 L 500 184 L 466 190 L 453 191 L 452 192 L 424 194 L 423 195 L 410 195 L 409 196 L 391 196 L 390 197 L 338 197 L 337 196 L 318 196 L 317 195 L 304 195 L 303 194 L 284 193 L 283 192 L 268 191 L 267 190 L 243 187 L 218 182 L 180 172 Q 151 164 127 152 Z " /><path fill="rgb(255,255,255)" stroke="rgb(255,255,255)" stroke-width="1" opacity="0" d="M 0 0 L 726 0 L 726 670 L 367 669.5 L 385.5 669 L 386.5 668 L 402.5 667 L 440.5 658 Q 476 646.5 502 625.5 L 511 597.5 L 514 566.5 L 522 528.5 Q 533.3 487.8 550 452.5 Q 593.1 359.6 663.5 294 Q 681.4 277.4 702.5 264 L 720 246.5 L 724 241.5 L 725 236.5 L 725 197.5 L 724 196.5 L 723 181.5 L 719 162.5 L 706 124.5 Q 684.3 76.2 648.5 42 Q 629.4 23.6 605.5 10 L 587.5 1 L 578.5 1 L 555.5 7 L 536.5 16 L 503.5 28 L 458.5 39 L 434.5 42 L 433.5 43 L 426.5 43 L 425.5 44 L 406.5 45 L 405.5 46 L 390.5 46 L 389.5 47 L 336.5 47 L 335.5 46 L 320.5 46 L 319.5 45 L 292.5 43 L 248.5 35 L 207.5 23 L 167.5 6 L 147.5 1 L 138.5 1 Q 97.6 19.6 69 50.5 Q 32.7 88.2 13 142.5 L 6 166.5 L 2 188.5 L 2 196.5 L 1 197.5 L 1 236.5 L 2 241.5 L 6 246.5 L 23.5 264 Q 61.7 288.8 91 322.5 Q 143.3 380.7 178 456.5 Q 193.4 490.1 204 528.5 L 212 566.5 L 215 597.5 L 222 621.5 L 226.5 628 Q 254.6 648.9 292.5 660 L 312.5 665 L 330.5 667 L 331.5 668 L 360 669.5 L 0 670 L 0 0 Z " /><path fill="rgb(255,255,255)" stroke="rgb(255,255,255)" stroke-width="1" opacity="0" d="M 128.5 153 L 151.5 163 L 184.5 174 L 224.5 184 L 257.5 190 L 278.5 192 L 279.5 193 L 287.5 193 L 288.5 194 L 297.5 194 L 298.5 195 L 324.5 196 L 325.5 197 L 400.5 197 L 401.5 196 L 416.5 196 L 417.5 195 L 447.5 193 L 448.5 192 L 475.5 189 L 506.5 183 L 548.5 172 Q 574.6 164.1 597.5 153 L 595.5 156 Q 564.3 177.3 539 204.5 Q 465.1 281.6 416 383.5 L 396 429.5 L 379 479.5 L 368 525.5 L 368 530.5 L 365 543.5 L 365 550.5 L 364 551.5 L 364 560 L 362 559.5 L 362 551.5 L 361 550.5 L 361 543.5 L 356 515.5 L 344 469.5 Q 325.6 411.4 299 361.5 Q 249.3 266.2 176.5 194 Q 155.7 172.8 130.5 156 L 128.5 153 Z " /></svg>