<svg xmlns="http://www.w3.org/2000/svg" width="960" height="960" viewBox="0 0 960 960"><path fill="#000000" fill-rule="evenodd" d="M455 80.69C534.59 76 615.62 95.31 682.14 134.83C864.04 242.9 931.77 470.2 838.05 658.11C786.72 761.03 691.86 838.3 581.76 866.89C487.38 891.4 387.9 881.11 301.62 837.91C193.78 783.92 115.08 683.36 89.62 567C65.99 459.04 86.49 349.59 147.48 258C216.25 154.72 332.06 87.95 455 80.69ZM453 161.03C377.81 168.11 310.73 198.74 257.14 250.47C248.11 259.18 231 278.11 231 279.38C231 279.72 343.05 280 480 280C616.95 280 729 279.72 729 279.38C729 277.98 711.13 258.38 701.29 248.99C651.15 201.12 590.01 171.94 520 162.47C506.31 160.62 466.43 159.76 453 161.03ZM182.52 361.75C167.15 400.54 160.59 435.87 160.59 480C160.59 524.13 167.15 559.46 182.52 598.25C183.18 599.91 198.28 600 479.99 600L776.76 600L780.76 589.25C793.74 554.38 799.4 521.2 799.4 480C799.4 435.98 792.82 400.44 777.48 361.75C776.82 360.09 761.72 360 480 360C198.28 360 183.18 360.09 182.52 361.75ZM231 680.62C231 681.89 248.11 700.82 257.14 709.53C381.43 829.5 576.51 830.15 701.29 711.01C711.13 701.62 729 682.02 729 680.62C729 680.28 616.95 680 480 680C343.05 680 231 680.28 231 680.62Z"/></svg>
