<svg xmlns="http://www.w3.org/2000/svg" width="960" height="960" viewBox="0 0 960 960"><path fill="#000000" fill-rule="evenodd" d="M383.02 61.47C393.12 59.55 412.89 60.23 423.5 62.87C462.34 72.53 491.59 104.02 498.49 143.61C499.81 151.15 500 180.5 500 371.19L500 590.12L511.75 601.81C541.37 631.29 557.65 667.57 559.63 708.5C564.27 804.49 481.99 883.83 386.75 875.2C314.45 868.65 257.56 817.55 242.91 746C239.55 729.6 239.51 702.6 242.81 686.17C249.46 653.1 264.1 625.91 288.24 601.78L299.97 590.05L300.25 367.28L300.53 144.5L302.8 136.04C313.17 97.38 343.79 68.92 383.02 61.47ZM393.79 140.93C389.57 142.29 385.36 145.69 382.82 149.77L380.5 153.5L380 387.5L379.5 621.5L376.36 628.12C372.58 636.1 367.68 641.74 360.7 646.12C335.94 661.68 322.16 683.71 320.33 710.69C316.46 767.75 373.41 810.62 427.08 791.03C463.68 777.67 485.88 739.23 478.56 701.84C473.81 677.5 461.54 660.09 439.3 646.12C432.32 641.74 427.42 636.1 423.64 628.12L420.5 621.5L420 387.5L419.5 153.5L417.13 149.68C412.53 142.29 401.91 138.31 393.79 140.93ZM610.62 161.1C612.84 160.56 643.29 160.24 682 160.33L749.5 160.5L756.18 163.66C765.48 168.07 771.27 173.74 775.76 182.84C779.29 189.98 779.5 190.93 779.5 200C779.5 209.07 779.29 210.02 775.76 217.16C771.27 226.26 765.48 231.93 756.18 236.34L749.5 239.5L680 239.5L610.5 239.5L603.82 236.34C594.52 231.93 588.73 226.26 584.24 217.16C580.71 210.03 580.5 209.07 580.5 200.05C580.5 191.4 580.8 189.87 583.66 183.82C589.06 172.43 599.29 163.8 610.62 161.1ZM610.62 301.1C612.84 300.56 643.29 300.24 682 300.33L749.5 300.5L756.18 303.67C765.48 308.07 771.27 313.74 775.76 322.84C779.29 329.98 779.5 330.93 779.5 340C779.5 349.07 779.29 350.02 775.76 357.16C771.27 366.26 765.48 371.93 756.18 376.33L749.5 379.5L680 379.5L610.5 379.5L603.82 376.33C594.52 371.93 588.73 366.26 584.24 357.16C580.71 350.03 580.5 349.07 580.5 340.05C580.5 331.4 580.8 329.87 583.66 323.82C589.06 312.43 599.29 303.8 610.62 301.1ZM610.62 441.1C612.84 440.56 643.29 440.24 682 440.33L749.5 440.5L756.18 443.67C765.48 448.07 771.27 453.74 775.76 462.84C779.29 469.98 779.5 470.93 779.5 480C779.5 489.07 779.29 490.02 775.76 497.16C771.27 506.26 765.48 511.93 756.18 516.34L749.5 519.5L680 519.5L610.5 519.5L603.82 516.34C594.52 511.93 588.73 506.26 584.24 497.16C580.71 490.03 580.5 489.07 580.5 480.05C580.5 471.4 580.8 469.87 583.66 463.82C589.06 452.43 599.29 443.8 610.62 441.1Z"/></svg>
