<svg xmlns="http://www.w3.org/2000/svg" width="960" height="960" viewBox="0 0 960 960"><path fill="#000000" fill-rule="evenodd" d="M373 343.6C382.44 342.82 463.04 343.91 474 344.97C529.19 350.28 578.74 366.13 628.13 394.25C671.75 419.08 678.1 420.97 731.52 425C761.83 427.29 775.04 429.25 798.4 434.92C832.41 443.17 858.77 453.46 883.62 468.2C899.54 477.63 898.24 474.54 904 516.79C909.33 555.93 909.34 557.39 904.26 562.24C899.66 566.62 897.21 567 873.18 567C853.58 567 850.03 566.76 847.02 565.25C836.32 559.87 836.32 544.13 847.02 538.75C849.79 537.36 853.11 537 863.25 537C874.46 537 876 536.8 876 535.34C876 533.48 870.93 495.55 870.67 495.42C870.58 495.37 867.8 493.73 864.5 491.78C847.03 481.42 826.69 473.37 800.49 466.45L787.48 463.02L559.99 450.51C434.87 443.63 319 437.28 302.5 436.39C278.1 435.09 271.94 434.47 269.5 433.07C267.85 432.13 257.27 424.23 246 415.52C234.72 406.81 224.96 399.27 224.3 398.76C222.65 397.49 200.49 404.26 175.55 413.67C136.6 428.36 128.75 430.65 107.5 433.54C100.9 434.44 95.4 435.27 95.28 435.39C94.74 435.92 94.9 446.87 95.5 450.06C96.29 454.22 92.98 475.04 89.89 485.5C88.74 489.35 86.05 495.08 83.91 498.24C80.17 503.73 80 504.31 80.08 511.74C80.12 516.01 80.68 523.33 81.33 528L82.5 536.5L113.58 537L144.66 537.5L148.25 540.24C156.76 546.74 155.55 560 145.97 565.17C142.72 566.92 140.02 567.03 103.5 566.77C64.97 566.5 64.46 566.47 61.37 564.27C59.65 563.04 57.53 560.54 56.66 558.7C54.37 553.87 50.01 522.23 50 510.41C50 498.31 51.41 493.08 56.98 484.53C61.95 476.9 65.41 462.88 64.41 454.42C63.38 445.69 65.88 419.13 68.19 414.22C70.48 409.37 75.81 406 81.21 406C88.82 406 112.26 402.75 121.99 400.36C127.76 398.94 144.3 393.32 158.75 387.89C173.2 382.45 190.3 376.39 196.76 374.43C236.39 362.39 283.92 352.62 325 348.07C340.16 346.39 347.56 345.7 373 343.6ZM373 373.69C351.16 374.98 310.12 379.77 288.03 383.61C273.03 386.22 252.11 390.56 251.48 391.19C251.28 391.39 257.32 396.35 264.91 402.21L278.7 412.88L316.1 414.97C336.67 416.12 365.2 417.72 379.5 418.52C393.8 419.33 406.96 420 408.75 420L412 420L412 396.5L412 373L395.25 373.19C386.04 373.29 376.02 373.51 373 373.69ZM434 397.13L434 421.54L495.75 424.89C529.71 426.74 574.71 429.21 595.75 430.38C616.79 431.55 634 432.41 634 432.3C634 431.08 589.08 407.11 578.5 402.68C532.64 383.48 499.62 376.11 447.25 373.4L434 372.72L434 397.13ZM748.48 466.93C761.8 464.8 779.58 468.1 793.47 475.27C804.7 481.07 817.93 494.31 823.74 505.56C835.52 528.38 835.52 552.63 823.74 575.44C817.93 586.7 804.7 599.93 793.44 605.74C776.27 614.61 756.65 616.93 739.56 612.13C713.9 604.92 694.08 585.1 686.87 559.44C683.76 548.37 683.76 532.63 686.87 521.56C694.97 492.73 718.72 471.67 748.48 466.93ZM218.5 468.57C229.38 466.19 246.34 467.03 256.59 470.45C275.98 476.94 291.12 489.86 300 507.5C318.78 544.82 303.85 589.37 266.5 607.48C254.15 613.47 244.76 615.37 230.65 614.75C166.18 611.92 136.5 533.99 182.52 488.33C191.97 478.96 205.84 471.34 218.5 468.57ZM750.11 497.08C727.56 501.51 710.97 525.01 714.85 547.03C718.25 566.37 732.99 580.99 752.3 584.19C780.24 588.82 806.82 562.24 802.19 534.3C798.03 509.24 774.36 492.32 750.11 497.08ZM223 498.43C195.68 506.05 182.3 535.92 194.97 561C200.54 572.03 210.65 580.33 222.4 583.51C243.36 589.18 264.89 579.13 274.3 559.26C277.32 552.87 277.5 551.87 277.5 541C277.5 530.21 277.31 529.1 274.4 523C265.05 503.37 243.03 492.85 223 498.43ZM324 538.12C325.64 537.46 385.62 537.18 497.68 537.31L668.85 537.5L671.62 539.56C680.98 546.55 680.98 557.45 671.62 564.44C668.86 566.5 668.77 566.5 499.18 566.79C405.86 566.94 328.03 566.81 326.23 566.49C321.62 565.66 316.24 560.61 314.98 555.91C313.04 548.73 317.01 540.91 324 538.12Z"/></svg>
